<?xml version="1.0" encoding="UTF-8"?>
<svg version="1.1" xmlns="http://www.w3.org/2000/svg" width="512" height="512">
<path d="M0 0 C1.6796875 1.5546875 1.6796875 1.5546875 2.6171875 4.4296875 C2.6967089 8.40575764 2.35059526 9.57853314 -0.3203125 12.5546875 C-4.61928067 15.26177834 -9.33650577 17.14617665 -14.0078125 19.109375 C-23.61034549 23.16654911 -32.64160411 27.74394309 -41.3203125 33.5546875 C-41.3203125 33.8846875 -41.3203125 34.2146875 -41.3203125 34.5546875 C-40.53011719 34.338125 -39.73992187 34.1215625 -38.92578125 33.8984375 C-17.76506035 28.6747624 1.83780162 31.30886457 20.6796875 42.5546875 C24.18972784 45.04056539 27.44263584 47.72664959 30.6796875 50.5546875 C31.59621094 51.27398437 31.59621094 51.27398437 32.53125 52.0078125 C41.42710435 59.07575157 52.37553573 71.08545466 54.3671875 82.4921875 C53.52919786 86.22505042 52.72847392 87.27045273 49.6796875 89.5546875 C46.91374898 89.9173625 44.55820894 90.04639401 41.80078125 89.98046875 C40.64981712 89.97553658 40.64981712 89.97553658 39.4756012 89.97050476 C37.02222151 89.95478245 34.57021207 89.91082361 32.1171875 89.8671875 C30.49415198 89.8556881 28.87110334 89.84590531 27.24804688 89.83789062 C19.01711651 89.77408009 10.86312863 89.52179046 2.6796875 88.5546875 C3.00195312 89.65683594 3.32421875 90.75898437 3.65625 91.89453125 C4.91761767 96.97460584 5.06379209 101.90116779 5.0546875 107.1171875 C5.05307617 108.08156738 5.05146484 109.04594727 5.04980469 110.03955078 C4.84874597 121.8803323 2.62527048 135.13971639 -5.6953125 144.1171875 C-8.3203125 145.5546875 -8.3203125 145.5546875 -11.1328125 145.7421875 C-17.53778087 143.35602281 -21.92527627 137.97128688 -26.6328125 133.1796875 C-30.66641058 129.09774149 -34.94120328 125.47189839 -39.41796875 121.88671875 C-41.44605219 120.25715507 -43.45181257 118.61636651 -45.44140625 116.94140625 C-45.96371826 116.50175537 -46.48603027 116.06210449 -47.02416992 115.60913086 C-48.48301575 114.37833767 -49.94076186 113.14624136 -51.3984375 111.9140625 C-54.61936429 109.31320717 -57.93169634 106.93177645 -61.3203125 104.5546875 C-61.10826172 105.12912598 -60.89621094 105.70356445 -60.67773438 106.29541016 C-59.71527475 108.91996353 -58.76770744 111.54966062 -57.8203125 114.1796875 C-57.31951172 115.53513672 -57.31951172 115.53513672 -56.80859375 116.91796875 C-53.60447359 125.87642715 -53.60447359 125.87642715 -54.3203125 130.5546875 C-55.650625 131.946875 -55.650625 131.946875 -57.0078125 133.3671875 C-59.64722264 136.22890995 -59.64722264 136.22890995 -58.984375 138.93359375 C-58.20745154 141.21090609 -57.34937807 143.38060531 -56.3203125 145.5546875 C-55.2271875 145.6578125 -54.1340625 145.7609375 -53.0078125 145.8671875 C-48.51174563 146.70543726 -48.51174563 146.70543726 -46.3203125 149.5546875 C-45.35644531 152.02124023 -45.35644531 152.02124023 -44.5234375 154.98828125 C-44.20834229 156.0961499 -43.89324707 157.20401855 -43.56860352 158.34545898 C-43.23916748 159.54887939 -42.90973145 160.7522998 -42.5703125 161.9921875 C-42.21960693 163.25426025 -41.86890137 164.51633301 -41.50756836 165.81665039 C-40.42688637 169.72449247 -39.37262353 173.63911156 -38.3203125 177.5546875 C-38.0207666 178.65554687 -37.7212207 179.75640625 -37.41259766 180.890625 C-25.63052676 224.54289453 -18.38807997 269.53207368 -12.8828125 314.3671875 C-12.75669083 315.38637268 -12.75669083 315.38637268 -12.62802124 316.42614746 C-11.80354172 323.16764478 -11.10718476 329.76017514 -11.3203125 336.5546875 C-10.30831787 336.54683228 -10.30831787 336.54683228 -9.27587891 336.53881836 C-6.1656999 336.51780004 -3.05553592 336.50494926 0.0546875 336.4921875 C1.11558594 336.48380859 2.17648437 336.47542969 3.26953125 336.46679688 C8.99086319 336.44924678 14.55089462 336.67870067 20.23291016 337.33422852 C24.37856892 337.70775973 28.52146625 337.63431301 32.6796875 337.5546875 C32.77467529 336.72670654 32.86966309 335.89872559 32.9675293 335.0456543 C35.77599942 310.86614328 39.44466459 287.10432968 45.2421875 263.4296875 C45.66334839 261.6957373 45.66334839 261.6957373 46.09301758 259.92675781 C47.69395691 253.60855749 49.34755756 247.21819454 52.6796875 241.5546875 C55.63633269 240.0763649 58.42198487 240.49435967 61.6796875 240.5546875 C61.81246094 239.92820312 61.94523437 239.30171875 62.08203125 238.65625 C62.25863281 237.83898437 62.43523437 237.02171875 62.6171875 236.1796875 C62.87822266 234.96152344 62.87822266 234.96152344 63.14453125 233.71875 C63.6796875 231.5546875 63.6796875 231.5546875 64.6796875 229.5546875 C64.0403125 229.2659375 63.4009375 228.9771875 62.7421875 228.6796875 C60.6796875 227.5546875 60.6796875 227.5546875 59.6796875 225.5546875 C59.094122 220.07314381 60.79193053 216.43940939 63.1796875 211.6796875 C63.80483804 210.40908548 64.42913165 209.13806161 65.05273438 207.86669922 C65.58962891 206.77373535 66.12652344 205.68077148 66.6796875 204.5546875 C54.57285014 205.17077752 42.61116112 206.40739674 30.58422852 207.90063477 C6.94230654 210.81754464 6.94230654 210.81754464 1.9921875 208.0546875 C0.16793543 204.57992166 0.1625957 201.36686892 0.6796875 197.5546875 C1.90021553 194.9751318 3.00687858 192.97167304 4.6171875 190.6796875 C5.02396729 190.07817871 5.43074707 189.47666992 5.84985352 188.85693359 C17.93235917 171.376753 30.96262948 162.44466141 51.6796875 158.5546875 C50.55949219 158.10738281 49.43929688 157.66007813 48.28515625 157.19921875 C46.81215388 156.58937701 45.33951639 155.97865341 43.8671875 155.3671875 C43.12919922 155.07521484 42.39121094 154.78324219 41.63085938 154.48242188 C38.15382869 153.01923702 36.05283762 152.01257973 33.6328125 149.04296875 C32.20378662 145.31227412 33.14740328 143.15222436 34.6796875 139.5546875 C37.9631095 136.42159084 41.93866688 135.26375612 46.1796875 133.9296875 C46.84355469 133.713125 47.50742187 133.4965625 48.19140625 133.2734375 C59.84086537 129.50654653 75.53386872 127.60355317 86.8125 133.36328125 C87.42867188 133.75644531 88.04484375 134.14960938 88.6796875 134.5546875 C89.25460937 134.91691406 89.82953125 135.27914062 90.421875 135.65234375 C98.66902334 141.70435559 101.11211183 151.14502469 103.6796875 160.5546875 C104.21335937 160.02359375 104.74703125 159.4925 105.296875 158.9453125 C112.86429429 151.77066584 119.2209011 148.41671026 129.7421875 148.0546875 C135.92598928 148.25546029 140.41020101 149.36135891 145.6796875 152.5546875 C146.43894531 153.00199219 147.19820313 153.44929687 147.98046875 153.91015625 C157.73306428 160.02396824 165.1032428 168.5027271 170.6796875 178.5546875 C171.38746055 181.92887287 171.90887939 184.49467499 171.1796875 187.8671875 C168.87691015 190.45781201 166.00310091 191.06346612 162.6796875 191.5546875 C159.79418972 191.38365222 157.05706047 190.8183778 154.2421875 190.1796875 C153.51064453 190.02757812 152.77910156 189.87546875 152.02539062 189.71875 C150.24035608 189.34540944 148.45951653 188.95210431 146.6796875 188.5546875 C147.54980469 189.26431641 147.54980469 189.26431641 148.4375 189.98828125 C159.81693907 199.62137076 165.92730385 211.63232777 167.6796875 226.5546875 C167.86429517 230.20151816 167.91022819 233.84113473 167.9296875 237.4921875 C167.960625 238.93754883 167.960625 238.93754883 167.9921875 240.41210938 C168.02405279 246.23947439 167.54917311 250.43558088 164.6796875 255.5546875 C161.56191685 257.11357282 159.01493818 257.38850017 155.6796875 256.5546875 C148.95043021 252.35462385 143.26906215 246.40632725 137.45703125 241.05078125 C134.80359102 238.66604383 132.0865019 236.41240646 129.3046875 234.1796875 C123.88439535 229.80623289 118.8068098 225.12385581 113.71875 220.375 C110.11470387 217.01437913 106.41937673 213.76336345 102.6796875 210.5546875 C82.16043449 247.92983174 84.57968697 308.26155467 81.6796875 349.5546875 C82.33888184 349.72049316 82.99807617 349.88629883 83.67724609 350.05712891 C110.47181364 357.04681117 136.51701433 370.02113115 158.6796875 386.5546875 C159.77818372 387.34829629 160.87713208 388.14127967 161.9765625 388.93359375 C171.19764975 395.75944736 179.46415709 403.56562846 187.6796875 411.5546875 C188.24349121 412.07490479 188.80729492 412.59512207 189.38818359 413.13110352 C190.6796875 414.5546875 190.6796875 414.5546875 190.6796875 416.5546875 C200.80076356 415.72468493 209.87149033 414.21991622 219.41015625 410.67578125 C224.68658843 408.86653867 229.74654073 408.3658465 235.3046875 408.2421875 C236.41070312 408.20480469 237.51671875 408.16742188 238.65625 408.12890625 C241.6796875 408.5546875 241.6796875 408.5546875 244.0546875 410.3203125 C246.67502741 413.92327988 246.0966594 416.17648258 245.6796875 420.5546875 C245.0196875 421.5446875 244.3596875 422.5346875 243.6796875 423.5546875 C244.16308594 424.36292969 244.16308594 424.36292969 244.65625 425.1875 C246.62593593 429.74333844 246.20076934 434.6955993 245.6796875 439.5546875 C243.3838533 444.49956115 240.47179709 447.02793881 235.6796875 449.5546875 C233.05941122 450.40369149 230.43081458 451.10102612 227.7578125 451.765625 C223.35565696 452.89409634 219.04923002 454.30084654 214.72265625 455.6875 C208.93349658 457.33729903 203.64791557 457.65758798 197.6796875 457.5546875 C197.69322266 458.39 197.69322266 458.39 197.70703125 459.2421875 C197.4727457 465.27249389 195.8530966 468.5940572 191.625 472.890625 C186.35978655 477.39460277 181.17851685 478.02302618 174.49609375 477.859375 C171.72821678 477.55993755 169.43260077 476.95202374 166.8046875 476.0546875 C154.92551709 472.21251832 144.60237151 475.39496416 133.18359375 479.14453125 C117.38884595 484.23903529 101.2965794 481.81980372 85.91796875 476.62109375 C73.17185864 472.3313401 62.55158203 475.08327331 50.18359375 479.14453125 C34.38884595 484.23903529 18.2965794 481.81980372 2.91796875 476.62109375 C-9.62665311 472.39915177 -19.92912709 474.93643152 -32.03515625 479.14453125 C-47.64425277 484.4558894 -65.24144169 481.92891978 -80.3828125 476.3671875 C-92.67298606 472.21662954 -102.93841345 475.24223093 -114.81640625 479.14453125 C-130.61115405 484.23903529 -146.7034206 481.81980372 -162.08203125 476.62109375 C-171.6073463 473.41531139 -180.38163376 473.65808221 -189.8515625 476.87109375 C-195.83995662 478.5292725 -201.99170184 478.49202387 -207.6953125 475.9296875 C-212.48996377 473.15900787 -216.49867018 468.8540106 -218.3203125 463.5546875 C-218.4453125 460.3046875 -218.4453125 460.3046875 -218.3203125 457.5546875 C-219.47789062 457.59207031 -220.63546875 457.62945312 -221.828125 457.66796875 C-226.17803312 457.66509816 -230.01618971 456.88180845 -234.1953125 455.7421875 C-235.23848633 455.46870483 -235.23848633 455.46870483 -236.30273438 455.18969727 C-241.67964774 453.76621312 -247.02716636 452.26521947 -252.3203125 450.5546875 C-253.04863281 450.34328125 -253.77695313 450.131875 -254.52734375 449.9140625 C-259.78746948 448.23550661 -262.14518166 446.07684354 -265.3203125 441.5546875 C-266.66147664 438.87235923 -266.48935271 436.73636491 -266.5078125 433.7421875 C-266.52199219 432.70449219 -266.53617187 431.66679687 -266.55078125 430.59765625 C-266.31745677 427.51698217 -265.62150136 425.33707158 -264.3203125 422.5546875 C-264.9803125 421.8946875 -265.6403125 421.2346875 -266.3203125 420.5546875 C-267.00556611 413.47373352 -267.00556611 413.47373352 -264.66015625 410.328125 C-260.14591591 406.90664735 -254.71457653 407.98058775 -249.3203125 408.5546875 C-243.22002081 409.83994937 -237.29185352 411.621444 -231.34765625 413.48828125 C-224.77695668 415.46421824 -218.14907632 417.05464718 -211.3203125 415.5546875 C-209.14080549 413.93356658 -207.81144541 412.22999795 -206.21484375 410.03515625 C-203.92905766 407.042426 -201.2942986 404.56626583 -198.5078125 402.0546875 C-197.98396973 401.5817627 -197.46012695 401.10883789 -196.92041016 400.62158203 C-162.95762307 370.22609418 -119.04034291 350.40723258 -74.3203125 342.5546875 C-77.17607109 268.17620461 -82.32026716 194.42949208 -98.3203125 121.5546875 C-100.94550718 125.49247952 -101.61112737 129.28588626 -102.6328125 133.8671875 C-102.95548096 135.28632446 -102.95548096 135.28632446 -103.28466797 136.73413086 C-104.58274387 142.63203345 -105.68885438 148.54665362 -106.65234375 154.5078125 C-106.76127457 155.18035568 -106.87020538 155.85289886 -106.98243713 156.54582214 C-107.51834536 159.8820216 -108.03497051 163.21951784 -108.5324707 166.56176758 C-108.72284912 167.78790771 -108.91322754 169.01404785 -109.109375 170.27734375 C-109.27131348 171.36797119 -109.43325195 172.45859863 -109.60009766 173.58227539 C-110.36709459 176.74776273 -111.43343446 178.91169051 -113.3203125 181.5546875 C-116.1245758 182.95681915 -118.2058478 182.76383959 -121.3203125 182.5546875 C-135.78910039 177.02314191 -147.45955686 165.08433509 -154.9609375 151.8515625 C-156.28061225 149.62176724 -157.72824083 147.59628528 -159.3203125 145.5546875 C-160.13113281 146.24433594 -160.94195312 146.93398437 -161.77734375 147.64453125 C-168.05800966 152.97832473 -174.34864834 158.29706356 -180.7578125 163.4765625 C-182.44113375 164.84169498 -184.10855571 166.22671536 -185.7578125 167.6328125 C-190.11480108 171.25382328 -193.36961627 173.8979969 -199.3203125 173.5546875 C-202.06007433 171.94656643 -203.86594419 170.85017384 -204.94042969 167.78662109 C-207.30413497 153.89909299 -206.64811045 136.98997993 -202.3203125 123.5546875 C-201.96839844 122.38292969 -201.61648437 121.21117187 -201.25390625 120.00390625 C-195.13048536 101.18903876 -182.7206622 86.90395245 -165.11328125 77.91796875 C-162.53496616 76.73863459 -159.94499627 75.62559673 -157.3203125 74.5546875 C-156.6603125 74.2246875 -156.0003125 73.8946875 -155.3203125 73.5546875 C-166.97715219 74.50829954 -178.04710369 76.45795962 -189.3828125 79.3359375 C-192.8304533 80.19913837 -196.28171593 81.0299831 -199.75390625 81.7890625 C-200.55626709 81.96663086 -201.35862793 82.14419922 -202.18530273 82.32714844 C-204.3203125 82.5546875 -204.3203125 82.5546875 -207.3828125 81.3046875 C-210.03142492 78.91239241 -210.27974178 77.94655289 -210.65234375 74.34765625 C-210.25905775 69.85494205 -208.68369029 67.32828026 -206.0078125 63.8671875 C-205.55486816 63.26342285 -205.10192383 62.6596582 -204.63525391 62.03759766 C-203.22349684 60.18712337 -201.78087532 58.36682119 -200.3203125 56.5546875 C-199.89282715 56.02117676 -199.4653418 55.48766602 -199.02490234 54.93798828 C-188.75479045 42.37497703 -175.57168018 32.23158547 -160.3203125 26.5546875 C-159.2684375 26.16023438 -159.2684375 26.16023438 -158.1953125 25.7578125 C-152.09615736 23.87723967 -145.63089747 24.38153121 -139.3203125 24.5546875 C-139.4234375 23.6471875 -139.5265625 22.7396875 -139.6328125 21.8046875 C-139.6328125 14.95813487 -136.11004301 7.55041391 -132.0703125 2.1171875 C-125.10638406 -4.37192764 -117.91209721 -6.83196051 -108.515625 -6.71875 C-99.50400208 -5.94758422 -93.008411 -1.19643101 -86.3203125 4.5546875 C-85.01320312 3.75804687 -85.01320312 3.75804687 -83.6796875 2.9453125 C-61.05919304 -10.57457902 -23.81257898 -14.83275122 0 0 Z " fill="#010100" transform="translate(266.3203125,19.4453125)"/>
<path d="M0 0 C10.09520384 -0.65482403 18.1381941 1.50004328 27.5625 4.93359375 C40.93377794 9.3001517 56.93996816 8.27996741 69.95703125 3.24267578 C75.92187259 1.03879337 81.28637385 0.45923534 87.625 0.5 C88.58269287 0.50136963 89.54038574 0.50273926 90.52709961 0.50415039 C97.9710045 0.66316821 104.11744446 2.06495233 111.00390625 4.80859375 C123.6347424 9.83128609 140.54909759 8.11927564 152.92138672 3.24267578 C158.89382189 1.03647485 164.28007554 0.45919483 170.625 0.5 C171.58269287 0.50136963 172.54038574 0.50273926 173.52709961 0.50415039 C180.9710045 0.66316821 187.11744446 2.06495233 194.00390625 4.80859375 C205.83213031 9.51212483 220.67445024 8.35343087 232.375 4 C247.07744097 -1.32984807 261.80867277 -0.82634824 276.2800293 4.84448242 C288.83026591 9.51010797 303.47718075 8.15688028 316 4 C331.86816411 -1.12409466 342.61694974 -0.70638233 358.25488281 4.79296875 C364.40392449 6.81774139 369.9182883 7.47719342 376.375 7.375 C377.2918457 7.36702393 378.20869141 7.35904785 379.15332031 7.35083008 C386.82409778 7.19006122 393.76717164 6.03509847 400.94165039 3.24487305 C406.99826333 1.00359735 412.50023001 0.42442276 418.9375 0.4375 C420.45029541 0.43459961 420.45029541 0.43459961 421.99365234 0.43164062 C429.45589608 0.58737441 435.38896203 2.14039203 442.27758789 4.84521484 C455.4158775 9.7195483 471.23738913 8.22179763 484.12109375 3.16796875 C491.83524514 0.20771784 499.82737227 0.27210816 508 0 C510.99092469 5.00082609 510.60548697 10.35383401 510 16 C507.7041658 20.94487365 504.79210959 23.47325131 500 26 C497.37972372 26.84900399 494.75112708 27.54633862 492.078125 28.2109375 C487.67596946 29.33940884 483.36954252 30.74615904 479.04296875 32.1328125 C473.25380908 33.78261153 467.96822807 34.10290048 462 34 C462.01353516 34.8353125 462.01353516 34.8353125 462.02734375 35.6875 C461.7930582 41.71780639 460.1734091 45.0393697 455.9453125 49.3359375 C450.68009905 53.83991527 445.49882935 54.46833868 438.81640625 54.3046875 C436.04852928 54.00525005 433.75291327 53.39733624 431.125 52.5 C419.24582959 48.65783082 408.92268401 51.84027666 397.50390625 55.58984375 C381.70915845 60.68434779 365.6168919 58.26511622 350.23828125 53.06640625 C337.49217114 48.7766526 326.87189453 51.52858581 314.50390625 55.58984375 C298.70915845 60.68434779 282.6168919 58.26511622 267.23828125 53.06640625 C254.69365939 48.84446427 244.39118541 51.38174402 232.28515625 55.58984375 C216.67605973 60.9012019 199.07887081 58.37423228 183.9375 52.8125 C171.64732644 48.66194204 161.38189905 51.68754343 149.50390625 55.58984375 C133.70915845 60.68434779 117.6168919 58.26511622 102.23828125 53.06640625 C92.7129662 49.86062389 83.93867874 50.10339471 74.46875 53.31640625 C68.48035588 54.974585 62.32861066 54.93733637 56.625 52.375 C51.83034873 49.60432037 47.82164232 45.2993231 46 40 C45.875 36.75 45.875 36.75 46 34 C44.26363281 34.05607422 44.26363281 34.05607422 42.4921875 34.11328125 C38.14227938 34.11041066 34.30412279 33.32712095 30.125 32.1875 C29.42955078 32.00517822 28.73410156 31.82285645 28.01757812 31.63500977 C22.64066476 30.21152562 17.29314614 28.71053197 12 27 C10.90751953 26.68289063 10.90751953 26.68289063 9.79296875 26.359375 C4.53284302 24.68081911 2.17513084 22.52215604 -1 18 C-2.34832104 15.30335792 -2.16910682 13.13412479 -2.1875 10.125 C-2.20167969 9.07570313 -2.21585937 8.02640625 -2.23046875 6.9453125 C-2.00504937 4.06452929 -1.48964317 2.43759792 0 0 Z " fill="#00C0FB" transform="translate(2,443)"/>
<path d="M0 0 C0 0.33 0 0.66 0 1 C-1.24652344 1.00257813 -2.49304688 1.00515625 -3.77734375 1.0078125 C-12.57341961 1.16180908 -20.21283342 1.63113153 -28.375 5.0625 C-41.10914598 10.20653657 -55.02139699 10.02467972 -67.75 5 C-82.45636525 -0.76298762 -99.40031393 -0.21856687 -113.87792969 5.83789062 C-125.66621792 10.56701357 -137.89013302 9.05865801 -149.625 5 C-165.33745205 -0.37799296 -182.07603483 -0.19900313 -197.51831055 5.83789062 C-209.37901444 10.29939325 -221.40030275 9.30365358 -233.125 5 C-248.50917132 -0.58950624 -265.35436115 -0.12514508 -280.50927734 5.84008789 C-293.21067765 10.64283221 -306.52674447 9.05710915 -318.93359375 4.19140625 C-324.50811577 2.02550916 -329.90022797 1.73980393 -335.8125 1.4375 C-336.99489258 1.37272461 -336.99489258 1.37272461 -338.20117188 1.30664062 C-340.13394215 1.20121679 -342.06695026 1.10016906 -344 1 C-340.44981661 -2.72901726 -336.71943097 -5.85199283 -332.5 -8.8125 C-331.88471436 -9.24626953 -331.26942871 -9.68003906 -330.63549805 -10.12695312 C-324.58272477 -14.35295708 -318.40778837 -18.33112037 -312 -22 C-311.33468262 -22.38124023 -310.66936523 -22.76248047 -309.98388672 -23.15527344 C-288.14058696 -35.5021352 -264.82462538 -43.98886191 -240.39404297 -49.45043945 C-238.63895162 -49.85332652 -236.88852545 -50.27668218 -235.14111328 -50.71166992 C-226.45470518 -52.83267607 -217.74788105 -54.17068928 -208.875 -55.1875 C-208.12820984 -55.27404846 -207.38141968 -55.36059692 -206.61199951 -55.44976807 C-135.73361581 -63.46558654 -55.05695823 -47.80139009 0 0 Z " fill="#FDDA63" transform="translate(428,428)"/>
<path d="M0 0 C0.2475 0.61875 0.495 1.2375 0.75 1.875 C2.26814785 4.45585134 3.24156737 4.91392722 6 6 C7.70418382 6.14527469 9.41488519 6.22076727 11.125 6.25 C15.89434264 6.54376386 19.74687117 7.52629064 24.15722656 9.21411133 C39.5314139 15.09536419 56.50866722 15.21152645 71.95483398 9.24487305 C77.85256143 7.07633303 83.17000375 6.42409837 89.4375 6.4375 C90.39978516 6.43556641 91.36207031 6.43363281 92.35351562 6.43164062 C98.77728744 6.57174933 104.04257571 7.65868965 110 10 C124.16936332 15.5535306 140.82492199 14.73806197 154.94604492 9.24267578 C160.93254242 7.0300589 166.32631144 6.4592625 172.6875 6.5 C174.12790649 6.50205444 174.12790649 6.50205444 175.59741211 6.50415039 C182.83874046 6.65904836 188.54991727 7.91349934 195.22265625 10.80859375 C206.93174515 15.83147999 222.79996304 14.34798083 234.4375 10 C248.62194435 4.79838297 264.33986659 4.71732316 278.2578125 10.80859375 C291.10350952 16.38970143 307.78754414 13.78988634 320.48535156 9.21142578 C325.90443451 7.260788 330.74675607 6.32618037 336.5546875 6.30078125 C341.07199823 5.7451376 343.93449218 3.16459159 347 0 C348.19753906 0.42152344 349.39507812 0.84304688 350.62890625 1.27734375 C360.90615006 4.77620539 370.10839894 6.96743916 381 7 C381.17752301 12.72170309 380.54019046 16.43587753 377 21 C373.15683716 24.99057182 369.02067315 27.64271608 363.45703125 28.30078125 C358.69010666 28.32190499 354.65117689 28.05794996 350.125 26.5 C338.24582959 22.65783082 327.92268401 25.84027666 316.50390625 29.58984375 C300.70915845 34.68434779 284.6168919 32.26511622 269.23828125 27.06640625 C256.49217114 22.7766526 245.87189453 25.52858581 233.50390625 29.58984375 C217.70915845 34.68434779 201.6168919 32.26511622 186.23828125 27.06640625 C173.69365939 22.84446427 163.39118541 25.38174402 151.28515625 29.58984375 C135.67605973 34.9012019 118.07887081 32.37423228 102.9375 26.8125 C90.64732644 22.66194204 80.38189905 25.68754343 68.50390625 29.58984375 C52.70915845 34.68434779 36.6168919 32.26511622 21.23828125 27.06640625 C11.7129662 23.86062389 2.93867874 24.10339471 -6.53125 27.31640625 C-12.51964412 28.974585 -18.67138934 28.93733637 -24.375 26.375 C-29.14598032 23.61799908 -33.2356917 19.2929249 -35 14 C-35.02762634 11.66683022 -35.0297388 9.33314381 -35 7 C-33.18628906 6.87044922 -33.18628906 6.87044922 -31.3359375 6.73828125 C-21.78175159 5.95327386 -13.52789503 4.6320323 -4.58984375 1.0234375 C-2 0 -2 0 0 0 Z " fill="#7EDFFD" transform="translate(83,469)"/>
<path d="M0 0 C3.93948488 0.61996742 7.59796662 2.00626684 11.34033203 3.34863281 C27.17680779 8.90956968 41.8625816 7.58377114 57.21533203 1.34863281 C69.18582916 -2.19621814 83.93424757 -0.67918526 95.52783203 3.34863281 C109.57238375 8.17920724 122.28590951 7.9209469 136.11376953 2.54003906 C151.28771176 -3.28874227 169.38801135 0.09010629 184.21533203 5.34863281 C185.20533203 5.84363281 185.20533203 5.84363281 186.21533203 6.34863281 C197.7589006 7.44841805 208.73006306 7.18587559 219.43798828 2.54003906 C233.85239868 -3.6433578 252.12173529 0.16341326 266.21533203 5.34863281 C277.63799573 9.15618738 291.22673026 6.99771557 302.06225586 2.50512695 C307.26863453 0.43874553 311.93033332 -0.25719151 317.52783203 -0.27636719 C318.23979736 -0.28667969 318.9517627 -0.29699219 319.68530273 -0.30761719 C323.06578999 -0.21602058 324.943868 0.1434112 327.66455078 2.20019531 C329.21533203 4.34863281 329.21533203 4.34863281 329.71533203 7.34863281 C329.10682828 10.99965535 328.11152329 12.11442813 325.21533203 14.34863281 C322.27273292 15.32949918 320.28371933 15.44460421 317.21533203 15.53613281 C312.3352958 15.87551183 308.25629854 16.92538981 303.69921875 18.56542969 C286.20913656 24.83593731 269.47910356 23.89770037 252.21533203 17.34863281 C251.55533203 17.01863281 250.89533203 16.68863281 250.21533203 16.34863281 C239.09489697 15.20899815 228.16249719 15.41866664 217.65283203 19.34863281 C201.4318483 25.29201505 185.11885295 23.3816849 169.21533203 17.34863281 C168.55533203 17.01863281 167.89533203 16.68863281 167.21533203 16.34863281 C157.26487705 15.49861751 145.95371694 14.78045047 136.82470703 19.27832031 C123.65234347 24.68135567 106.31775592 24.50137156 93.21533203 19.34863281 C79.18823474 13.8951456 64.18417969 14.57218152 50.30908203 20.15722656 C36.99132017 25.28591011 20.39064375 23.55440195 7.37182617 18.56005859 C2.08846159 16.5381267 -2.59886709 15.67411247 -8.30419922 15.64941406 C-11.41451741 15.27225737 -13.25629536 14.16217757 -15.78466797 12.34863281 C-17.20508618 9.5077964 -17.09919069 7.49386004 -16.78466797 4.34863281 C-12.51584869 -1.37075613 -6.50076462 -0.57217292 0 0 Z " fill="#010304" transform="translate(99.78466796875,460.6513671875)"/>
<path d="M0 0 C0.99 0 1.98 0 3 0 C8.11718425 11.66910975 13.02804493 23.37493489 17.43554688 35.33276367 C17.74427734 36.16396729 18.05300781 36.9951709 18.37109375 37.8515625 C18.63849365 38.58197754 18.90589355 39.31239258 19.18139648 40.06494141 C20.03988078 42.26207191 20.03988078 42.26207191 22 45 C23.4540625 45.0928125 23.4540625 45.0928125 24.9375 45.1875 C28 46 28 46 29.05859375 47.66015625 C30.50448668 51.36136542 31.68327685 55.01421837 31 59 C30.49484863 59.44706299 29.98969727 59.89412598 29.46923828 60.35473633 C27.79803816 61.89587219 27.79803816 61.89587219 27.81591797 64.1003418 C28.62577923 70.58251332 30.16923148 76.58782458 32.125 82.8125 C43.32178608 120.00213494 50.62235486 158.56511406 56 197 C56.10934875 197.78149414 56.21869751 198.56298828 56.33135986 199.36816406 C57.15567938 205.28470973 57.95844905 211.2039882 58.75 217.125 C58.85718353 217.92101624 58.96436707 218.71703247 59.07479858 219.53717041 C60.38857321 229.35078266 61.43260311 239.11023258 62 249 C58.10429463 249.43069251 54.20821658 249.85782462 50.31176758 250.28173828 C48.33850027 250.49716153 46.36553649 250.71535919 44.39257812 250.93359375 C43.14541016 251.06894531 41.89824219 251.20429688 40.61328125 251.34375 C39.46641846 251.46943359 38.31955566 251.59511719 37.13793945 251.72460938 C34.40157597 251.96475705 31.74416227 252.05393931 29 252 C28.98541748 251.04488525 28.97083496 250.08977051 28.95581055 249.10571289 C28.28146838 207.60092533 25.99194992 166.21849559 21 125 C20.90654297 124.22092285 20.81308594 123.4418457 20.71679688 122.63916016 C16.17001558 84.80344435 10.50645161 46.83082158 0.38452148 10.03540039 C-0.61483103 6.27693938 -1.15750939 3.71802928 0 0 Z " fill="#936758" transform="translate(178,108)"/>
<path d="M0 0 C-2.4972334 1.66482226 -4.02568644 2.4444482 -6.7890625 3.3046875 C-32.13567674 11.50317578 -55.7679685 23.52688189 -76 41 C-76.86109375 41.73992187 -77.7221875 42.47984375 -78.609375 43.2421875 C-83.49929044 47.53894752 -87.95714314 51.89323344 -92 57 C-92 57.33 -92 57.66 -92 58 C-92.85827393 57.99830811 -92.85827393 57.99830811 -93.73388672 57.99658203 C-104.01963996 58.04381148 -113.46811147 58.28267108 -123.125 62.0625 C-136.82179048 67.28464143 -150.39927694 66.49927798 -163.93359375 61.19140625 C-169.50811577 59.02550916 -174.90022797 58.73980393 -180.8125 58.4375 C-181.99489258 58.37272461 -181.99489258 58.37272461 -183.20117188 58.30664062 C-185.13394215 58.20121679 -187.06695026 58.10016906 -189 58 C-185.44981661 54.27098274 -181.71943097 51.14800717 -177.5 48.1875 C-176.88471436 47.75373047 -176.26942871 47.31996094 -175.63549805 46.87304688 C-169.58272477 42.64704292 -163.40778837 38.66887963 -157 35 C-156.33468262 34.61875977 -155.66936523 34.23751953 -154.98388672 33.84472656 C-133.14058696 21.4978648 -109.82462538 13.01113809 -85.39404297 7.54956055 C-83.63895162 7.14667348 -81.88852545 6.72331782 -80.14111328 6.28833008 C-71.45400027 4.16715181 -62.74769529 2.83421409 -53.875 1.8125 C-53.1351889 1.72528687 -52.39537781 1.63807373 -51.63314819 1.54821777 C-34.42726109 -0.4367857 -17.29371998 -0.41307921 0 0 Z " fill="#FBC54F" transform="translate(273,371)"/>
<path d="M0 0 C0.99 0 1.98 0 3 0 C4.33934716 2.95564708 5.67044247 5.9149378 7 8.875 C7.3815625 9.71675781 7.763125 10.55851562 8.15625 11.42578125 C8.5171875 12.23144531 8.878125 13.03710938 9.25 13.8671875 C9.58515625 14.61081543 9.9203125 15.35444336 10.265625 16.12060547 C11 18 11 18 11 20 C10.34 20 9.68 20 9 20 C9.16491943 20.54785156 9.32983887 21.09570312 9.49975586 21.66015625 C30.11581216 90.91996984 44.95865744 169.11805261 44.0625 241.5 C44.05798828 242.23863281 44.05347656 242.97726562 44.04882812 243.73828125 C44.03743887 245.49222604 44.01953571 247.24612703 44 249 C45.98 249 47.96 249 50 249 C50 249.33 50 249.66 50 250 C47.43795456 250.33719047 44.87545682 250.66987153 42.3125 251 C41.2306543 251.14308594 41.2306543 251.14308594 40.12695312 251.2890625 C39.06831055 251.42441406 39.06831055 251.42441406 37.98828125 251.5625 C37.34415283 251.64628906 36.70002441 251.73007812 36.03637695 251.81640625 C33.68290121 252.02858869 31.36174225 252.02869239 29 252 C28.98541748 251.04488525 28.97083496 250.08977051 28.95581055 249.10571289 C28.28146838 207.60092533 25.99194992 166.21849559 21 125 C20.90654297 124.22092285 20.81308594 123.4418457 20.71679688 122.63916016 C16.17001558 84.80344435 10.50645161 46.83082158 0.38452148 10.03540039 C-0.61483103 6.27693938 -1.15750939 3.71802928 0 0 Z " fill="#80584E" transform="translate(178,108)"/>
<path d="M0 0 C1.22212297 3.66636892 0.64086682 4.99035321 -0.44140625 8.66015625 C-0.94160278 10.41126709 -0.94160278 10.41126709 -1.4519043 12.19775391 C-1.63296722 12.82466125 -1.81403015 13.4515686 -2.00057983 14.09747314 C-14.12230552 56.48697605 -18.11096752 101.09658467 -20 145 C-25.37000552 144.36317242 -30.61317657 143.53892155 -35.90820312 142.43579102 C-36.59849609 142.29197998 -37.28878906 142.14816895 -38 142 C-38.30840151 133.8161346 -37.35960575 125.96484858 -36.1875 117.875 C-35.91292969 115.94068115 -35.91292969 115.94068115 -35.6328125 113.96728516 C-34.32825139 104.92088366 -32.8539547 95.95141765 -31 87 C-30.69998366 85.48448124 -30.40053576 83.96884988 -30.1015625 82.453125 C-28.30480835 73.49942165 -26.22687994 64.70419967 -23.57470703 55.96142578 C-22.36700923 51.86967354 -21.60532671 48.27023557 -22 44 C-22.515625 43.525625 -23.03125 43.05125 -23.5625 42.5625 C-24.036875 42.046875 -24.51125 41.53125 -25 41 C-24.75743709 36.63386765 -23.80477442 32.97050372 -22 29 C-20.9275 28.95875 -19.855 28.9175 -18.75 28.875 C-14.86856645 28.38480511 -14.86856645 28.38480511 -13.01953125 25.4453125 C-10.82300813 21.69805255 -8.84082719 17.9020041 -6.9375 14 C-6.59912109 13.31421875 -6.26074219 12.6284375 -5.91210938 11.921875 C-5.25087511 10.58150071 -4.59114858 9.24038133 -3.93310547 7.8984375 C-2.63568948 5.2587968 -1.31864949 2.6290831 0 0 Z " fill="#7F584E" transform="translate(353,220)"/>
<path d="M0 0 C-7.38813717 7.45305928 -15.17204969 14.21244669 -23.46557617 20.62475586 C-28.69422463 24.6950836 -33.68712917 29.0043239 -38.67016602 33.36962891 C-42.85067703 37.02532332 -47.1126933 40.54055918 -51.4765625 43.9765625 C-54.53379061 46.42802405 -57.51686734 48.95932502 -60.5 51.5 C-64.51362814 54.90993319 -68.53911604 58.30149672 -72.625 61.625 C-73.40101562 62.25664062 -74.17703125 62.88828125 -74.9765625 63.5390625 C-77 65 -77 65 -80 66 C-79.43622726 47.70557448 -75.01318519 31.65578788 -62.22265625 18.02734375 C-44.76980156 2.10813183 -22.46542903 -0.24808449 0 0 Z " fill="#B0E16B" transform="translate(156,103)"/>
<path d="M0 0 C5.74393697 4.56650944 10.88161225 9.82453539 15.8203125 15.2421875 C15.8203125 15.5721875 15.8203125 15.9021875 15.8203125 16.2421875 C-6.56919057 16.39387 -28.91170381 16.00330169 -51.28985596 15.31506348 C-55.3611028 15.1909141 -59.43251142 15.07230418 -63.50390625 14.953125 C-71.3959943 14.72133976 -79.28789329 14.48379285 -87.1796875 14.2421875 C-63.99890137 -9.16937282 -28.94659095 -19.44174019 0 0 Z " fill="#B1E36C" transform="translate(281.1796875,76.7578125)"/>
<path d="M0 0 C6.05962145 4.58500612 10.91597509 9.6016943 15 16 C13.22898044 15.70946625 11.45819731 15.4174913 9.6875 15.125 C8.70136719 14.96257812 7.71523437 14.80015625 6.69921875 14.6328125 C4.70728384 14.29205911 2.71637743 13.93613349 0.74487305 13.4921875 C-7.26171599 11.78525313 -15.08668282 11.69456245 -23.23413086 11.73925781 C-25.56195011 11.74999746 -27.88900066 11.73929742 -30.21679688 11.7265625 C-37.29555074 11.72089912 -44.12568496 11.82227327 -51.03491211 13.57128906 C-53 14 -53 14 -57 14 C-54.5077872 6.52336161 -44.11606844 0.99768871 -37.4609375 -2.78125 C-23.81504 -9.53921828 -12.67659417 -7.99623127 0 0 Z " fill="#AEDE6A" transform="translate(142,66)"/>
<path d="M0 0 C14.85 0.33 29.7 0.66 45 1 C47.15269336 8.17564454 48.46792944 13.00011436 48.3125 20.125 C48.31572266 20.87136719 48.31894531 21.61773437 48.32226562 22.38671875 C48.27293377 27.54413965 47.4112564 32.04092371 46 37 C41.75480978 35.33298628 38.84343894 32.17231663 35.625 29.0625 C25.84821558 19.81332304 15.31074297 11.75653441 4.265625 4.08325195 C2.82758725 3.07824084 1.41122158 2.04233083 0 1 C0 0.67 0 0.34 0 0 Z " fill="#9CD152" transform="translate(208,106)"/>
<path d="M0 0 C1.11181641 0.00322266 2.22363281 0.00644531 3.36914062 0.00976562 C4.51962891 0.01814453 5.67011719 0.02652344 6.85546875 0.03515625 C8.02529297 0.03966797 9.19511719 0.04417969 10.40039062 0.04882812 C13.28130233 0.06058695 16.16210919 0.07702199 19.04296875 0.09765625 C16.2741809 3.01944398 13.41690503 4.62943948 9.85546875 6.53515625 C-7.0959542 15.94889554 -22.47634055 28.77588797 -34.34765625 44.11328125 C-34.87875 44.768125 -35.40984375 45.42296875 -35.95703125 46.09765625 C-36.28703125 46.09765625 -36.61703125 46.09765625 -36.95703125 46.09765625 C-37.62675991 33.68907248 -36.19911358 22.3208188 -28.72265625 12.03125 C-21.30160902 3.90421819 -10.82022801 -0.05548835 0 0 Z " fill="#AFE06B" transform="translate(216.95703125,26.90234375)"/>
<path d="M0 0 C1.20586987 3.6176096 0.70862888 4.33590258 -0.625 7.8125 C-6.26797418 23.96308128 -8.92757944 41.21325526 -12 58 C-21.14949962 51.46086029 -29.59355639 43.07559536 -33 32 C-33.06487375 29.15482278 -32.57510969 27.63925614 -30.66479492 25.51586914 C-28.848962 23.83469761 -26.97726173 22.25502634 -25.0625 20.6875 C-24.38316406 20.11572021 -23.70382813 19.54394043 -23.00390625 18.95483398 C-18.44960826 15.13856085 -13.83187406 11.39914328 -9.1640625 7.72265625 C-6.03487727 5.23173443 -3.01783391 2.6242034 0 0 Z " fill="#9CD253" transform="translate(154,124)"/>
<path d="M0 0 C0.33 0 0.66 0 1 0 C0.39064653 6.6376003 -0.72799287 13.09534811 -1.96777344 19.64257812 C-8.28313439 53.11578589 -11.53654488 86.98752086 -13 121 C-15.31 120.67 -17.62 120.34 -20 120 C-21.48551929 86.05313323 -19.06621635 28.59932452 0 0 Z " fill="#926657" transform="translate(346,244)"/>
<path d="M0 0 C4.15809785 1.36654534 7.27505364 3.39587803 10.625 6.1875 C12.7002533 10.43233629 11.46921216 13.66656615 10 18 C9.49726563 19.13501953 9.49726563 19.13501953 8.984375 20.29296875 C7.73027209 23.74175176 7.29794137 27.18976451 6.875 30.8125 C6.78863281 31.50537109 6.70226562 32.19824219 6.61328125 32.91210938 C6.40283919 34.60733706 6.20058328 36.30357755 6 38 C4.515 36.7315625 4.515 36.7315625 3 35.4375 C2.35933594 34.8909375 1.71867187 34.344375 1.05859375 33.78125 C-0.29601993 32.60913645 -1.63770394 31.42188271 -2.96484375 30.21875 C-6.3470495 27.16471867 -9.45718751 24.68729387 -13.5 22.5625 C-15.484375 21.3671875 -15.484375 21.3671875 -17 20 C-18.23578826 13.71807636 -16.36589642 9.30099366 -13 4 C-9.64412134 -0.97167208 -5.54853518 -0.90197863 0 0 Z " fill="#9DD353" transform="translate(159,29)"/>
<path d="M0 0 C3.51884056 1.89278742 6.58623494 3.91039961 9.6796875 6.44140625 C9.6796875 6.77140625 9.6796875 7.10140625 9.6796875 7.44140625 C-2.50998398 9.17926639 -14.70788936 10.76331789 -26.9453125 12.12890625 C-28.69581909 12.32577026 -28.69581909 12.32577026 -30.48168945 12.52661133 C-32.1227063 12.7067981 -32.1227063 12.7067981 -33.796875 12.890625 C-34.76705566 12.99721436 -35.73723633 13.10380371 -36.73681641 13.21362305 C-39.3203125 13.44140625 -39.3203125 13.44140625 -43.3203125 13.44140625 C-40.12686768 5.97340248 -32.25701376 0.57436317 -25.046875 -2.70703125 C-16.21450184 -5.46556613 -8.20834407 -3.82112569 0 0 Z " fill="#9BD052" transform="translate(333.3203125,198.55859375)"/>
<path d="M0 0 C12.10963761 -0.45505945 22.83549964 1.55147623 32 10 C33.40297413 12.34197257 34.6045167 14.54465912 35.75 17 C36.05292969 17.61617187 36.35585938 18.23234375 36.66796875 18.8671875 C39.44359244 24.61581256 40.12261725 28.62390296 40 35 C36.32043709 33.43767979 33.83484207 31.16415918 30.9375 28.4375 C27.24636541 25.0046517 23.49589741 21.72061908 19.5625 18.5625 C14.81743486 14.74046626 10.32357308 10.7083849 5.88305664 6.54125977 C3.16085026 3.96899968 3.16085026 3.96899968 0 2 C0 1.34 0 0.68 0 0 Z " fill="#9BD052" transform="translate(378,216)"/>
<path d="M0 0 C9.18250951 4.36501901 9.18250951 4.36501901 11 8 C9.04320312 8.07347656 9.04320312 8.07347656 7.046875 8.1484375 C-2.44631698 8.5417165 -11.67850282 9.04854835 -21 11 C-15.71651211 4.11017696 -9.52274978 -2.30443767 0 0 Z " fill="#ACDC69" transform="translate(400,183)"/>
<path d="M0 0 C6.74186768 -0.32916895 12.11600898 -0.53039461 18 3 C22.37698285 7.06184009 24.89888445 11.32043782 25.125 17.3125 C25.08375 18.199375 25.0425 19.08625 25 20 C24.34 20 23.68 20 23 20 C22.01848198 18.89163965 21.09072098 17.73554396 20.1875 16.5625 C16.48890589 12.16797592 12.28999589 9.18464381 7.53198242 6.05883789 C4.75416004 4.23381313 2.22555592 2.48415925 0 0 Z " fill="#ADDD69" transform="translate(329,165)"/>
<path d="M0 0 C1.41687119 4.25061356 0.19320039 6.71851625 -1 11 C-2.32 11 -3.64 11 -5 11 C-3.55049545 7.2089881 -1.84827434 3.6125362 0 0 Z " fill="#6A4A41" transform="translate(353,220)"/>
</svg>
